<svg version="1.2" xmlns="http://www.w3.org/2000/svg" viewBox="0 0 219 49" width="219" height="49">
	<title>logo-svg</title>
	<style>
		.s0 { fill: #1e1c84 } 
	</style>
	<path id="Medicofy." class="s0" aria-label="Medicofy."  d="m12.1 37h6.7v-18l6.2 18h5.4l6.1-17.9v17.9h6.7v-29.9h-7.8l-7.7 20.7-7.7-20.7h-7.9zm45.6-18.3c2.2 0 4.1 1.5 4.1 4.1h-8.4c0.4-2.7 2.1-4.1 4.3-4.1zm10.5 10.4h-7.2c-0.5 1.3-1.6 2.3-3.4 2.3-2.2 0-4-1.5-4.2-4.6h15.2c0-0.7 0.1-1.4 0.1-2.1 0-7.2-4.5-11.8-10.9-11.8-6.5 0-11.1 4.6-11.1 12.2 0 7.5 4.7 12.2 11.1 12.2 5.4 0 9.3-3.6 10.4-8.2zm2.7-4.1c0 7.5 4.3 12.3 9.6 12.3 3.2 0 5.6-1.6 6.8-3.7v3.4h6.7v-31.6h-6.7v11.1c-1.4-2.2-3.9-3.6-6.8-3.6-5.3 0-9.6 4.6-9.6 12.1zm16.4 0.1c0 3.8-2.3 5.9-4.8 5.9-2.5 0-4.8-2.2-4.8-6 0-3.8 2.3-5.8 4.8-5.8 2.5 0 4.8 2.1 4.8 5.9zm11.5 11.9h6.8v-23.8h-6.8zm3.4-26.3c2.4 0 4-1.7 4-3.9 0-2.2-1.6-3.9-4-3.9-2.4 0-4 1.7-4 3.9 0 2.2 1.6 3.9 4 3.9zm6.9 14.4c0 7.5 4.5 12.2 11 12.2 5.5 0 9.3-3.4 10.5-8.9h-7.2c-0.6 1.7-1.6 2.7-3.5 2.7-2.3 0-4-2-4-6 0-4 1.7-6 4-6 1.9 0 3 1.1 3.5 2.7h7.2c-1.2-5.7-5-8.9-10.5-8.9-6.5 0-11 4.7-11 12.2zm46.4 0c0-7.5-4.9-12.2-11.3-12.2-6.4 0-11.4 4.7-11.4 12.2 0 7.5 4.9 12.2 11.3 12.2 6.4 0 11.4-4.7 11.4-12.2zm-15.9 0c0-4 2.1-5.9 4.6-5.9 2.3 0 4.5 1.9 4.5 5.9 0 4-2.2 5.9-4.6 5.9-2.4 0-4.5-1.9-4.5-5.9zm20.2 11.9h6.7v-17.7h3.6v-6.1h-3.6v-0.2c0-2.5 0.9-3.4 3.5-3.2v-6.2c-6.7-0.4-10.2 2.7-10.2 8.9v0.7h-2.4v6.1h2.4zm23.5-8.9l-5-14.9h-7.5l8.9 23-5.1 12.1h7.3l13.7-35.1h-7.3zm21.8 5.3c0-2.3-1.6-4-3.9-4-2.4 0-4 1.7-4 4 0 2.2 1.6 3.9 4 3.9 2.3 0 3.9-1.7 3.9-3.9z"/>
</svg>